<svg width="18" height="18" viewBox="0 0 18 18" fill="none" xmlns="http://www.w3.org/2000/svg">
<path fill-rule="evenodd" clip-rule="evenodd" d="M9.30131 17.6171C-2.76069 17.6171 -2.21469 0.383057 9.10131 0.383057C20.3893 0.383057 20.3193 17.6171 9.30131 17.6171ZM9.07331 3.27706C1.55331 3.27706 1.18931 14.7231 9.20131 14.7231C16.5173 14.7231 16.5633 3.27706 9.07331 3.27706ZM11.4973 7.47706C11.0053 6.73506 11.2973 5.64306 11.5233 5.05106C12.1413 5.3977 12.6618 5.89471 13.0366 6.49604C13.4114 7.09737 13.6283 7.78357 13.6673 8.49106C13.0753 8.43706 11.9953 8.23106 11.4973 7.47906V7.47706ZM13.4973 10.1371C13.1233 11.5171 12.1913 12.7571 10.9133 13.3611C10.8033 12.6591 10.6813 11.3311 11.1733 10.7171C11.6353 10.1471 12.7813 10.1051 13.4953 10.1391L13.4973 10.1371ZM9.03531 10.2351C7.30331 10.2351 7.38131 7.76306 9.00731 7.76306C10.6333 7.76306 10.6213 10.2351 9.03531 10.2351ZM8.29931 6.31106C7.42731 6.51106 6.49931 5.87306 5.99731 5.42706C6.52656 4.94735 7.1657 4.60521 7.85838 4.43082C8.55106 4.25643 9.27601 4.25514 9.96931 4.42706C9.73931 5.03706 9.21331 6.09506 8.29931 6.31106ZM6.23531 8.79306C6.14731 9.69306 5.28531 10.4331 4.65731 10.8571C4.06931 9.47506 4.27531 7.88706 5.02531 6.61906C5.55331 7.05306 6.31931 7.85306 6.23531 8.79306ZM7.95731 11.6311C8.72731 11.8931 9.14331 13.0611 9.32531 13.7371C8.60395 13.7391 7.88969 13.5946 7.22584 13.3123C6.56199 13.0301 5.96236 12.6159 5.46331 12.0951C6.16731 11.7791 7.25731 11.3971 7.94931 11.6311H7.95731Z" fill="#010101"/>
</svg>
